<svg xmlns="http://www.w3.org/2000/svg" viewBox="0 0 600 600" role="img" aria-label="Static Bloom tee in black">
  <rect width="600" height="600" fill="#f3f1ec"/>
  <g stroke="#f5f5f5" stroke-width="3" stroke-linejoin="round">
    <path d="M150 130 L240 90 L300 130 L360 90 L450 130 L500 200 L450 235 L425 215 L425 510 L175 510 L175 215 L150 235 L100 200 Z" fill="#0a0a0a"/>
  </g>
  <g transform="translate(300 320)" text-anchor="middle" font-family="Impact, 'Anton', 'Archivo Black', system-ui, sans-serif" fill="#f5f5f5">
    
    <g opacity="0.75">
      <circle cx="34.8" cy="-72.2" r="5.7" fill="#ff3b30"/><circle cx="-75.1" cy="-69.0" r="4.5" fill="#ff3b30"/><circle cx="-13.4" cy="48.7" r="6.1" fill="#ff3b30"/><circle cx="-29.6" cy="-84.8" r="3.7" fill="#ff3b30"/><circle cx="-14.6" cy="2.0" r="5.5" fill="#ff3b30"/><circle cx="-68.3" cy="65.0" r="2.8" fill="#ff3b30"/><circle cx="-62.1" cy="-70.0" r="4.0" fill="#ff3b30"/><circle cx="35.6" cy="55.7" r="3.5" fill="#ff3b30"/><circle cx="-78.9" cy="85.9" r="2.7" fill="#ff3b30"/><circle cx="-34.8" cy="-26.1" r="4.2" fill="#ff3b30"/><circle cx="-53.0" cy="71.2" r="4.4" fill="#ff3b30"/><circle cx="72.1" cy="82.1" r="5.9" fill="#ff3b30"/><circle cx="-55.5" cy="-58.8" r="2.0" fill="#ff3b30"/><circle cx="-63.3" cy="-72.3" r="2.1" fill="#ff3b30"/><circle cx="4.5" cy="-82.9" r="3.8" fill="#ff3b30"/><circle cx="-27.0" cy="-86.1" r="3.9" fill="#ff3b30"/><circle cx="-13.8" cy="7.4" r="4.1" fill="#ff3b30"/><circle cx="-12.5" cy="-62.6" r="3.3" fill="#ff3b30"/><circle cx="-47.4" cy="6.0" r="2.1" fill="#ff3b30"/><circle cx="-68.8" cy="84.6" r="5.7" fill="#ff3b30"/><circle cx="-51.9" cy="-2.2" r="5.9" fill="#ff3b30"/><circle cx="-49.1" cy="-46.1" r="3.4" fill="#ff3b30"/><circle cx="-93.0" cy="2.5" r="6.8" fill="#ff3b30"/><circle cx="50.3" cy="35.9" r="4.0" fill="#ff3b30"/><circle cx="-60.3" cy="21.8" r="2.6" fill="#ff3b30"/><circle cx="109.0" cy="-28.6" r="4.8" fill="#ff3b30"/><circle cx="39.2" cy="-7.6" r="3.9" fill="#ff3b30"/><circle cx="93.3" cy="-83.6" r="5.2" fill="#ff3b30"/><circle cx="96.9" cy="-60.5" r="2.3" fill="#ff3b30"/><circle cx="58.5" cy="43.5" r="3.9" fill="#ff3b30"/><circle cx="-70.5" cy="-89.3" r="5.4" fill="#ff3b30"/><circle cx="-106.6" cy="85.2" r="4.7" fill="#ff3b30"/><circle cx="104.1" cy="-0.5" r="2.6" fill="#ff3b30"/><circle cx="17.9" cy="-79.3" r="6.1" fill="#ff3b30"/><circle cx="-103.1" cy="45.0" r="6.3" fill="#ff3b30"/><circle cx="77.4" cy="12.0" r="6.5" fill="#ff3b30"/><circle cx="-22.3" cy="-30.7" r="5.4" fill="#ff3b30"/><circle cx="76.6" cy="6.4" r="5.3" fill="#ff3b30"/><circle cx="62.3" cy="68.0" r="4.2" fill="#ff3b30"/><circle cx="-70.1" cy="20.6" r="2.1" fill="#ff3b30"/><circle cx="-84.2" cy="50.3" r="4.8" fill="#ff3b30"/><circle cx="-88.5" cy="79.5" r="6.3" fill="#ff3b30"/><circle cx="-11.2" cy="0.3" r="3.4" fill="#ff3b30"/><circle cx="72.3" cy="18.3" r="3.9" fill="#ff3b30"/><circle cx="14.4" cy="-48.8" r="6.4" fill="#ff3b30"/><circle cx="-15.9" cy="89.3" r="4.9" fill="#ff3b30"/><circle cx="-9.6" cy="52.0" r="3.8" fill="#ff3b30"/><circle cx="53.3" cy="81.8" r="2.4" fill="#ff3b30"/><circle cx="-105.3" cy="51.4" r="3.4" fill="#ff3b30"/><circle cx="81.5" cy="-74.0" r="3.3" fill="#ff3b30"/><circle cx="5.6" cy="-73.6" r="4.5" fill="#ff3b30"/><circle cx="-87.9" cy="-73.0" r="6.6" fill="#ff3b30"/><circle cx="95.9" cy="15.3" r="3.7" fill="#ff3b30"/><circle cx="81.2" cy="-34.5" r="5.6" fill="#ff3b30"/><circle cx="-30.8" cy="-80.2" r="5.8" fill="#ff3b30"/><circle cx="-101.8" cy="-46.0" r="5.4" fill="#ff3b30"/><circle cx="100.8" cy="-0.5" r="3.4" fill="#ff3b30"/><circle cx="57.6" cy="-24.0" r="5.6" fill="#ff3b30"/><circle cx="77.6" cy="42.9" r="4.5" fill="#ff3b30"/><circle cx="9.8" cy="-86.6" r="2.5" fill="#ff3b30"/>
    </g>
  </g>
</svg>